<?xml version="1.0" standalone="no"?>
<!DOCTYPE svg PUBLIC "-//W3C//DTD SVG 20010904//EN"
 "http://www.w3.org/TR/2001/REC-SVG-20010904/DTD/svg10.dtd">
<svg version="1.0" xmlns="http://www.w3.org/2000/svg"
 width="1500.000000pt" height="1500.000000pt" viewBox="0 0 1500.000000 1500.000000"
 preserveAspectRatio="xMidYMid meet">
<metadata>
Created by potrace 1.14, written by Peter Selinger 2001-2017
</metadata>
<g transform="translate(0.000000,1500.000000) scale(0.100000,-0.100000)"
fill="#000000" stroke="none">
<path d="M0 9392 l0 -859 161 -359 c88 -198 168 -376 177 -398 l17 -38 230 5
c179 4 250 10 320 25 93 21 233 67 250 83 5 5 15 9 22 9 20 0 175 92 243 145
259 199 410 487 448 852 11 103 3 329 -13 375 -2 7 -6 30 -9 50 -10 63 -67
230 -107 312 -62 123 -106 184 -208 287 -193 194 -429 312 -706 353 -62 10
-206 14 -457 15 l-368 2 0 -859z m770 346 c284 -43 505 -244 576 -523 23 -90
28 -307 9 -388 -7 -31 -12 -57 -10 -57 8 0 -48 -138 -77 -188 -69 -122 -222
-248 -351 -291 -93 -31 -199 -47 -312 -46 l-100 0 -1 753 -1 753 106 -2 c58
-2 131 -7 161 -11z"/>
<path d="M3075 10234 c-38 -7 -83 -15 -100 -18 -48 -9 -164 -51 -236 -85 -299
-141 -564 -445 -659 -755 -18 -57 -25 -88 -46 -201 -10 -51 -12 -267 -4 -325
17 -120 22 -145 46 -229 87 -300 331 -588 634 -748 75 -40 196 -84 280 -102
25 -5 59 -13 75 -16 49 -11 336 -14 390 -5 185 33 299 71 432 146 154 86 338
256 437 403 189 283 251 615 180 970 -90 445 -504 862 -944 950 -30 6 -68 13
-85 17 -59 12 -329 11 -400 -2z m433 -523 c256 -86 452 -305 506 -566 15 -69
15 -233 1 -300 -57 -278 -289 -518 -561 -581 -106 -24 -222 -24 -363 1 -16 3
-60 18 -97 33 -237 98 -417 319 -458 564 -53 313 85 614 356 780 126 77 247
108 413 103 92 -2 125 -7 203 -34z"/>
<path d="M4689 10208 c-3 -289 1 -1547 6 -1588 36 -331 267 -646 577 -789 129
-60 231 -82 388 -86 314 -9 547 87 768 315 114 118 199 272 244 445 21 78 21
104 25 913 l3 832 -253 0 -252 0 0 -752 c0 -414 -3 -784 -8 -823 -14 -132
-109 -276 -236 -356 -151 -96 -371 -94 -525 5 -106 68 -205 207 -222 311 -3
22 -8 47 -9 55 -2 8 -4 363 -4 788 l-1 772 -250 0 -250 0 -1 -42z"/>
<path d="M8009 10246 c-2 -2 -28 -7 -57 -10 -172 -19 -398 -111 -546 -224 -95
-71 -245 -229 -309 -323 -62 -93 -112 -196 -147 -299 -23 -68 -24 -70 -45
-185 -13 -71 -14 -368 -1 -430 58 -276 149 -452 334 -646 182 -192 393 -311
644 -365 124 -27 400 -25 529 3 357 78 680 329 852 662 48 93 96 236 111 331
3 19 9 49 12 65 7 34 7 300 0 330 -2 11 -5 30 -5 42 -2 49 12 48 -617 46 -324
-1 -596 -2 -605 -2 -14 -1 -15 -30 -15 -248 l1 -248 348 -1 c191 -1 350 -4
353 -7 8 -8 -62 -144 -99 -191 -148 -192 -344 -295 -577 -301 -192 -6 -334 38
-476 146 -241 184 -342 463 -281 779 21 107 109 260 205 356 98 98 212 165
332 195 183 45 390 23 540 -59 55 -30 152 -101 163 -119 4 -7 13 -13 18 -13 6
0 89 78 184 174 l173 174 -37 35 c-165 156 -427 284 -656 318 -72 11 -319 22
-326 15z"/>
<path d="M9582 8995 l0 -1255 754 0 754 0 0 250 0 250 -502 0 -503 0 0 1005 0
1005 -251 0 -251 0 -1 -1255z"/>
<path d="M12346 10208 c-34 -80 -218 -492 -252 -566 -19 -41 -34 -75 -34 -77
0 -3 -14 -35 -31 -72 -17 -38 -48 -106 -69 -153 -21 -47 -54 -120 -74 -163
-20 -43 -36 -80 -36 -82 0 -2 -15 -36 -34 -77 -18 -40 -76 -170 -129 -288 -52
-118 -106 -240 -120 -270 -14 -30 -73 -163 -132 -295 -58 -132 -121 -271 -139
-310 -18 -38 -36 -80 -40 -92 l-7 -23 264 0 265 0 15 33 c8 17 34 74 56 124
22 51 54 121 70 155 l29 63 421 -1 c231 0 422 -2 424 -5 2 -2 39 -86 83 -186
l79 -183 267 0 267 0 -18 43 c-23 53 -438 980 -496 1107 -24 52 -79 176 -123
275 -44 99 -91 205 -105 235 -13 30 -34 75 -45 100 -11 25 -80 178 -152 340
-73 162 -144 321 -159 353 l-26 59 -19 -44z m104 -1330 c40 -95 88 -208 106
-250 l33 -78 -218 0 -219 0 107 250 c58 137 109 250 112 250 3 0 39 -78 79
-172z"/>
<path d="M14070 10243 c-37 -7 -162 -67 -214 -102 -104 -72 -213 -200 -265
-311 -45 -98 -63 -174 -66 -292 -6 -211 41 -326 200 -483 134 -134 255 -202
480 -274 200 -64 289 -116 314 -183 12 -32 8 -187 -5 -196 -5 -4 -16 -20 -25
-37 -10 -16 -36 -45 -58 -62 -151 -117 -369 -31 -401 157 l-5 35 -252 2 -251
2 3 -57 c14 -196 90 -353 239 -496 84 -80 176 -136 281 -169 80 -26 103 -29
225 -33 132 -3 238 19 347 74 149 74 283 209 352 357 l31 65 -19 47 c-10 27
-30 73 -44 103 -39 84 -175 387 -253 562 l-69 158 -70 29 c-38 16 -114 41
-168 56 -101 29 -223 91 -276 141 -50 47 -75 117 -68 191 4 34 12 72 19 85 51
92 132 146 221 150 30 1 46 5 44 12 -3 6 -26 58 -52 116 -88 194 -111 245
-136 302 -13 32 -26 57 -29 56 -3 0 -16 -3 -30 -5z"/>
<path d="M4030 6392 l0 -858 116 -260 c63 -142 130 -290 148 -329 18 -38 45
-100 61 -138 l30 -68 305 1 c336 1 407 9 540 61 226 87 435 308 511 539 114
350 1 724 -290 960 -53 43 -180 120 -198 120 -17 0 -17 3 5 82 25 90 22 220
-8 308 -64 192 -207 337 -402 408 l-73 27 -372 3 -373 3 0 -859z m707 332 c62
-47 84 -127 52 -191 -32 -64 -61 -78 -166 -81 l-93 -4 0 152 0 152 89 -4 c72
-2 95 -7 118 -24z m280 -767 c238 -34 347 -353 192 -559 -44 -58 -104 -104
-171 -131 -48 -18 -76 -21 -280 -23 l-228 -2 0 357 c0 197 2 360 4 362 6 6
435 2 483 -4z"/>
<path d="M6020 5995 l1 -1255 252 0 252 0 -1 473 c0 259 2 478 4 484 2 7 52
-60 110 -150 58 -89 165 -254 239 -367 74 -113 169 -258 211 -322 l77 -118
307 0 308 0 -83 128 c-46 70 -110 168 -142 217 -86 133 -112 174 -229 353 -58
89 -106 167 -106 172 0 5 10 12 23 16 87 27 197 93 254 152 72 74 157 209 190
302 47 134 58 374 23 531 -50 231 -231 442 -475 555 -66 30 -102 42 -220 71
-16 4 -247 8 -513 10 l-482 4 0 -1256z m904 744 c123 -23 228 -105 267 -209
18 -46 20 -70 16 -150 -6 -118 -27 -166 -105 -244 -86 -86 -107 -91 -362 -91
l-215 0 -1 353 -1 353 176 -1 c97 -1 198 -6 225 -11z"/>
<path d="M11148 7229 c-507 -105 -902 -509 -992 -1015 -13 -78 -15 -360 -3
-431 51 -289 191 -535 414 -732 173 -152 345 -239 568 -287 123 -27 382 -26
510 0 253 53 458 168 648 363 162 165 278 378 321 587 34 163 39 364 11 501
-2 11 -4 22 -4 25 -1 4 -1195 5 -1222 1 -3 -1 -5 -112 -5 -248 l1 -248 348 -1
c191 0 350 -3 353 -6 7 -8 -46 -115 -87 -175 -31 -44 -119 -138 -165 -173
-126 -99 -288 -149 -467 -145 -216 5 -364 70 -520 227 -146 148 -217 333 -211
549 3 93 24 193 57 268 73 167 229 324 393 397 167 74 399 79 569 12 69 -27
162 -85 210 -130 22 -21 43 -38 47 -38 4 0 85 77 179 171 199 199 195 179 66
275 -199 148 -342 210 -602 260 -16 3 -97 7 -180 8 -115 2 -170 -1 -237 -15z"/>
<path d="M13680 7172 c-19 -42 -46 -104 -61 -137 -41 -90 -109 -243 -226 -505
-58 -129 -115 -257 -128 -285 -13 -27 -69 -153 -125 -280 -56 -126 -110 -248
-120 -270 -10 -22 -37 -83 -60 -135 -23 -52 -51 -115 -62 -140 -80 -173 -298
-666 -298 -672 0 -5 118 -8 263 -8 l262 0 85 187 85 187 422 1 422 0 83 -187
83 -188 267 0 267 0 -48 108 c-27 59 -58 130 -71 157 -12 28 -32 73 -45 100
-12 28 -89 199 -170 380 -81 182 -159 355 -172 385 -14 30 -61 136 -105 235
-44 99 -90 203 -103 230 -13 28 -35 75 -48 105 -14 30 -36 80 -50 110 -13 30
-58 132 -100 225 -41 94 -91 204 -110 246 -19 42 -50 110 -67 150 -18 41 -33
75 -34 76 -2 2 -18 -32 -36 -75z m109 -1274 c35 -84 75 -178 89 -208 40 -90
55 -131 50 -136 -3 -2 -100 -3 -216 -2 l-210 3 106 248 c58 136 109 247 112
247 3 0 35 -69 69 -152z"/>
<path d="M9061 7219 c-5 -13 -23 -55 -41 -94 -28 -62 -97 -216 -346 -774 -36
-79 -73 -162 -83 -185 -11 -22 -74 -165 -141 -316 -68 -151 -135 -302 -150
-335 -95 -209 -340 -763 -340 -768 0 -4 119 -7 264 -7 l264 0 20 48 c11 26 40
90 64 142 25 52 50 111 58 130 7 19 17 39 22 45 5 5 174 9 428 10 l420 0 83
-187 82 -188 267 0 267 0 -18 43 c-17 38 -66 147 -136 302 -62 138 -80 176
-137 305 -33 74 -69 155 -80 180 -11 25 -37 83 -58 130 -21 47 -49 110 -63
140 -14 30 -81 181 -150 335 -69 154 -141 315 -161 358 -20 42 -36 79 -36 81
0 3 -16 40 -36 83 -20 43 -53 116 -74 163 -21 47 -50 112 -65 145 -15 33 -43
96 -62 140 -41 96 -49 106 -62 74z m130 -1416 l105 -248 -108 -3 c-59 -1 -157
-1 -216 0 l-109 3 106 248 c58 136 108 247 111 247 3 0 53 -111 111 -247z"/>
</g>
</svg>
